<svg width="30" height="30" viewBox="0 0 30 30" fill="none" xmlns="http://www.w3.org/2000/svg">
<circle cx="15" cy="15" r="15" fill="white"/>
<circle cx="15" cy="15" r="14.5" stroke="black" stroke-opacity="0.1"/>
<g clip-path="url(#clip0_1_1668)">
<g filter="url(#filter0_d_1_1668)">
<path d="M21 10.1079L19.8921 9L15.5 13.3921L11.1079 9L10 10.1079L14.3921 14.5L10 18.8921L11.1079 20L15.5 15.6079L19.8921 20L21 18.8921L16.6079 14.5L21 10.1079Z" fill="black"/>
<path d="M20.2929 10.1079L16.2543 14.1464L15.9007 14.5L16.2543 14.8536L20.2929 18.8921L19.8921 19.2929L15.8536 15.2543L15.5 14.9007L15.1464 15.2543L11.1079 19.2929L10.7071 18.8921L14.7457 14.8536L15.0992 14.5L14.7457 14.1464L10.7071 10.1079L11.1079 9.70711L15.1464 13.7457L15.5 14.0992L15.8536 13.7457L19.8921 9.70711L20.2929 10.1079Z" stroke="black"/>
</g>
</g>
<defs>
<filter id="filter0_d_1_1668" x="6" y="9" width="19" height="19" filterUnits="userSpaceOnUse" color-interpolation-filters="sRGB">
<feFlood flood-opacity="0" result="BackgroundImageFix"/>
<feColorMatrix in="SourceAlpha" type="matrix" values="0 0 0 0 0 0 0 0 0 0 0 0 0 0 0 0 0 0 127 0" result="hardAlpha"/>
<feOffset dy="4"/>
<feGaussianBlur stdDeviation="2"/>
<feComposite in2="hardAlpha" operator="out"/>
<feColorMatrix type="matrix" values="0 0 0 0 0 0 0 0 0 0 0 0 0 0 0 0 0 0 0.25 0"/>
<feBlend mode="normal" in2="BackgroundImageFix" result="effect1_dropShadow_1_1668"/>
<feBlend mode="normal" in="SourceGraphic" in2="effect1_dropShadow_1_1668" result="shape"/>
</filter>
<clipPath id="clip0_1_1668">
<rect width="18" height="18" fill="white" transform="translate(6 6)"/>
</clipPath>
</defs>
</svg>
